<svg
  class="btn-icons"
  width="20"
  height="18"
  viewBox="0 0 20 18"
  fill="none"
  xmlns="http://www.w3.org/2000/svg"
>
  <path
    fill-rule="evenodd"
    clip-rule="evenodd"
    d="M0 8.7506C0 8.41912 0.131682 8.10121 0.366076 7.86682C0.60047 7.63242 0.918377 7.50074 1.24986 7.50074H15.7307L10.3638 2.13634C10.1292 1.90165 9.9973 1.58334 9.9973 1.25144C9.9973 0.919537 10.1292 0.601229 10.3638 0.366538C10.5985 0.131848 10.9168 0 11.2487 0C11.5806 0 11.899 0.131848 12.1336 0.366538L19.6328 7.8657C19.7492 7.9818 19.8415 8.11973 19.9046 8.27157C19.9676 8.42342 20 8.5862 20 8.7506C20 8.915 19.9676 9.07779 19.9046 9.22963C19.8415 9.38148 19.7492 9.5194 19.6328 9.6355L12.1336 17.1347C11.899 17.3694 11.5806 17.5012 11.2487 17.5012C10.9168 17.5012 10.5985 17.3694 10.3638 17.1347C10.1292 16.9 9.9973 16.5817 9.9973 16.2498C9.9973 15.9179 10.1292 15.5996 10.3638 15.3649L15.7307 10.0005H1.24986C0.918377 10.0005 0.60047 9.86878 0.366076 9.63439C0.131682 9.39999 0 9.08209 0 8.7506Z"
    fill="#3D4AA3"
  />
</svg>
