<svg
  class="bank"
  width="24"
  height="24"
  viewBox="0 0 24 24"
  fill="none"
  xmlns="http://www.w3.org/2000/svg"
>
  <g clip-path="url(#clip0_276_15920)">
    <path
      d="M11.9626 0L21.8467 4.56075H23.1776C23.3759 4.56075 23.566 4.63952 23.7063 4.77973C23.8465 4.91995 23.9252 5.11012 23.9252 5.30841V8.29907C23.9252 8.49736 23.8465 8.68753 23.7063 8.82774C23.566 8.96796 23.3759 9.04673 23.1776 9.04673H22.4299V19.514C22.5967 19.5141 22.7587 19.5699 22.8901 19.6726C23.0215 19.7753 23.1148 19.9189 23.1551 20.0807L23.9028 23.0714C23.9303 23.1816 23.9323 23.2966 23.9087 23.4077C23.8851 23.5188 23.8365 23.623 23.7666 23.7125C23.6967 23.802 23.6073 23.8744 23.5053 23.9243C23.4032 23.9741 23.2911 24 23.1776 24H0.747664C0.634095 24 0.522026 23.9741 0.419963 23.9243C0.3179 23.8744 0.228525 23.802 0.158621 23.7125C0.0887174 23.623 0.0401225 23.5188 0.0165247 23.4077C-0.00707314 23.2966 -0.00505363 23.1816 0.0224299 23.0714L0.770094 20.0807C0.810453 19.9189 0.903758 19.7753 1.03517 19.6726C1.16658 19.5699 1.32855 19.5141 1.49533 19.514V9.04673H0.747664C0.549371 9.04673 0.3592 8.96796 0.218986 8.82774C0.0787715 8.68753 0 8.49736 0 8.29907V5.30841C0 5.11012 0.0787715 4.91995 0.218986 4.77973C0.3592 4.63952 0.549371 4.56075 0.747664 4.56075H2.0785L11.9626 0ZM5.64636 4.56075H18.2774L11.9626 1.64486L5.64636 4.56075ZM2.99065 9.04673V19.514H4.48598V9.04673H2.99065ZM5.98131 9.04673V19.514H9.71963V9.04673H5.98131ZM11.215 9.04673V19.514H12.7103V9.04673H11.215ZM14.2056 9.04673V19.514H17.9439V9.04673H14.2056ZM19.4393 9.04673V19.514H20.9346V9.04673H19.4393ZM22.4299 7.5514V6.05608H1.49533V7.5514H22.4299ZM21.8467 21.0093H2.0785L1.70467 22.5047H22.2206L21.8467 21.0093Z"
      fill="#F8F9FC"
    />
  </g>
  <defs>
    <clipPath id="clip0_276_15920">
      <rect width="24" height="24" fill="white" />
    </clipPath>
  </defs>
</svg>