<svg
  class="box-seam"
  width="24"
  height="24"
  viewBox="0 0 24 24"
  fill="none"
  xmlns="http://www.w3.org/2000/svg"
>
  <g clip-path="url(#clip0_276_15928)">
    <path
      d="M12.279 1.66766C12.0999 1.59589 11.9001 1.59589 11.721 1.66766L2.769 5.24816L6.375 6.68966L15.606 2.99816L12.279 1.66766ZM17.625 3.80666L8.394 7.49816L12 8.93966L21.231 5.24816L17.625 3.80666ZM22.5 6.35666L12.75 10.2567V22.1397L22.5 18.2397V6.35666ZM11.25 22.1412V10.2552L1.5 6.35666V18.2412L11.25 22.1412ZM11.1645 0.274157C11.7008 0.059656 12.2992 0.059656 12.8355 0.274157L23.529 4.55216C23.668 4.60788 23.7872 4.70395 23.8711 4.82799C23.9551 4.95204 24 5.09838 24 5.24816V18.2412C23.9998 18.5409 23.9098 18.8337 23.7417 19.0818C23.5735 19.3299 23.3348 19.522 23.0565 19.6332L12.279 23.9442C12.0999 24.0159 11.9001 24.0159 11.721 23.9442L0.945 19.6332C0.666377 19.5222 0.427414 19.3303 0.258963 19.0821C0.0905126 18.834 0.000309494 18.5411 0 18.2412L0 5.24816C3.48599e-05 5.09838 0.0449156 4.95204 0.128861 4.82799C0.212805 4.70395 0.331969 4.60788 0.471 4.55216L11.1645 0.274157Z"
      fill="#F8F9FC"
    />
  </g>
  <defs>
    <clipPath id="clip0_276_15928">
      <rect width="24" height="24" fill="white" />
    </clipPath>
  </defs>
</svg>