 <svg
    class="icon-clock-history"
    width="20"
    height="20"
    viewBox="0 0 20 20"
    fill="none"
    xmlns="http://www.w3.org/2000/svg"
  >
    <path
      fill-rule="evenodd"
      clip-rule="evenodd"
      d="M10.6476 1.27359C10.4334 1.25778 10.2187 1.24986 10.0039 1.24984V0C10.2495 0.000119769 10.4951 0.00929151 10.7401 0.0274966L10.6476 1.27359ZM13.1523 1.83602C12.7516 1.68142 12.3401 1.55652 11.9212 1.46232L12.1949 0.24247C12.6736 0.349956 13.1448 0.492438 13.6022 0.669916L13.1523 1.83602ZM14.8645 2.72341C14.6859 2.60424 14.5028 2.49167 14.3159 2.38595L14.932 1.29859C15.3594 1.54073 15.7683 1.81393 16.1556 2.11599L15.387 3.10211C15.2175 2.96992 15.0433 2.84401 14.8645 2.72466V2.72341ZM17.1568 4.96063C16.9095 4.60939 16.6367 4.27687 16.3406 3.96575L17.2455 3.10336C17.583 3.45957 17.8954 3.84077 18.1791 4.24072L17.1568 4.96063ZM18.0866 6.65042C18.0046 6.45227 17.9154 6.25716 17.8192 6.06549L18.9353 5.50306C19.156 5.94186 19.344 6.39638 19.4977 6.86289L18.3104 7.25409C18.2432 7.0502 18.1686 6.84884 18.0866 6.65042ZM18.7491 9.78378C18.739 9.35425 18.6972 8.92606 18.6241 8.50269L19.8552 8.29021C19.9389 8.77265 19.9877 9.26259 20.0002 9.75253L18.7503 9.78378H18.7491ZM18.5853 11.706C18.6266 11.4936 18.6603 11.2823 18.6866 11.0686L19.9277 11.2223C19.8676 11.71 19.7715 12.1925 19.6402 12.6659L18.4354 12.3322C18.4928 12.126 18.5428 11.9173 18.5853 11.706ZM17.3955 14.6794C17.6255 14.317 17.8279 13.937 18.0029 13.5446L19.1453 14.0507C18.9453 14.5007 18.7141 14.9331 18.4516 15.3481L17.3955 14.6794ZM16.1906 16.1855C16.3431 16.033 16.4893 15.8755 16.6281 15.713L17.5755 16.5292C17.415 16.7152 17.2479 16.8953 17.0743 17.0691L16.1906 16.1855Z"
      fill="#2D368B"
    />
    <path
      fill-rule="evenodd"
      clip-rule="evenodd"
      d="M10.0027 1.24984C8.56393 1.24995 7.14744 1.60486 5.87864 2.28314C4.60984 2.96142 3.5279 3.94213 2.72863 5.13842C1.92937 6.3347 1.43747 7.70964 1.29649 9.14143C1.1555 10.5732 1.3698 12.0177 1.92039 13.3469C2.47097 14.6761 3.34086 15.849 4.453 16.7617C5.56515 17.6744 6.88521 18.2988 8.29628 18.5795C9.70735 18.8602 11.1659 18.7886 12.5427 18.371C13.9194 17.9534 15.172 17.2028 16.1894 16.1855L17.073 17.0691C15.9103 18.2324 14.4787 19.091 12.9048 19.5688C11.331 20.0466 9.66366 20.1288 8.05048 19.8081C6.4373 19.4875 4.92811 18.7739 3.65663 17.7306C2.38516 16.6872 1.39065 15.3464 0.761227 13.8269C0.131805 12.3073 -0.113098 10.656 0.0482163 9.01921C0.209531 7.3824 0.772083 5.81065 1.68603 4.44322C2.59997 3.07579 3.83709 1.95489 5.28778 1.17986C6.73846 0.404818 8.35791 -0.000435861 10.0027 3.51779e-07V1.24984Z"
      fill="#2D368B"
    />
    <path
      fill-rule="evenodd"
      clip-rule="evenodd"
      d="M9.37883 3.75C9.54457 3.75 9.70352 3.81584 9.82071 3.93304C9.93791 4.05023 10.0037 4.20918 10.0037 4.37492V10.8866L14.0632 13.2063C14.203 13.2906 14.3042 13.4262 14.3452 13.5841C14.3863 13.7421 14.364 13.9098 14.283 14.0515C14.2021 14.1931 14.0689 14.2975 13.912 14.3423C13.7551 14.3871 13.5869 14.3688 13.4433 14.2912L9.06887 11.7915C8.97322 11.7369 8.89371 11.6579 8.8384 11.5627C8.78309 11.4674 8.75394 11.3592 8.75391 11.2491V4.37492C8.75391 4.20918 8.81975 4.05023 8.93694 3.93304C9.05414 3.81584 9.21309 3.75 9.37883 3.75Z"
      fill="#2D368B"
    />
  </svg>