<svg
  class="btn-icons"
  width="20"
  height="18"
  viewBox="0 0 20 18"
  fill="none"
  xmlns="http://www.w3.org/2000/svg"
>
  <path
    fill-rule="evenodd"
    clip-rule="evenodd"
    d="M0.625 11.4375C0.79076 11.4375 0.949732 11.5033 1.06694 11.6206C1.18415 11.7378 1.25 11.8967 1.25 12.0625V15.1875C1.25 15.519 1.3817 15.837 1.61612 16.0714C1.85054 16.3058 2.16848 16.4375 2.5 16.4375H17.5C17.8315 16.4375 18.1495 16.3058 18.3839 16.0714C18.6183 15.837 18.75 15.519 18.75 15.1875V12.0625C18.75 11.8967 18.8158 11.7378 18.9331 11.6206C19.0503 11.5033 19.2092 11.4375 19.375 11.4375C19.5408 11.4375 19.6997 11.5033 19.8169 11.6206C19.9342 11.7378 20 11.8967 20 12.0625V15.1875C20 15.8505 19.7366 16.4864 19.2678 16.9553C18.7989 17.4241 18.163 17.6875 17.5 17.6875H2.5C1.83696 17.6875 1.20107 17.4241 0.732233 16.9553C0.263392 16.4864 0 15.8505 0 15.1875V12.0625C0 11.8967 0.065848 11.7378 0.183058 11.6206C0.300269 11.5033 0.45924 11.4375 0.625 11.4375Z"
    fill="#2D368B"
  />
  <path
    fill-rule="evenodd"
    clip-rule="evenodd"
    d="M9.55829 13.88C9.61635 13.9382 9.68532 13.9844 9.76125 14.0159C9.83718 14.0474 9.91858 14.0636 10.0008 14.0636C10.083 14.0636 10.1644 14.0474 10.2403 14.0159C10.3163 13.9844 10.3852 13.9382 10.4433 13.88L14.1933 10.13C14.3106 10.0126 14.3766 9.85347 14.3766 9.6875C14.3766 9.52153 14.3106 9.36236 14.1933 9.245C14.0759 9.12764 13.9168 9.06171 13.7508 9.06171C13.5848 9.06171 13.4256 9.12764 13.3083 9.245L10.6258 11.9288V0.9375C10.6258 0.77174 10.5599 0.612768 10.4427 0.495558C10.3255 0.378348 10.1665 0.3125 10.0008 0.3125C9.83503 0.3125 9.67606 0.378348 9.55885 0.495558C9.44164 0.612768 9.37579 0.77174 9.37579 0.9375V11.9288L6.69329 9.245C6.57593 9.12764 6.41676 9.06171 6.25079 9.06171C6.08482 9.06171 5.92565 9.12764 5.80829 9.245C5.69093 9.36236 5.625 9.52153 5.625 9.6875C5.625 9.85347 5.69093 10.0126 5.80829 10.13L9.55829 13.88Z"
    fill="#2D368B"
  />
</svg>