<svg
  class="btn-icons"
  width="20"
  height="14"
  viewBox="0 0 20 14"
  fill="none"
  xmlns="http://www.w3.org/2000/svg"
>
  <path
    fill-rule="evenodd"
    clip-rule="evenodd"
    d="M20 7C20 7 16.25 0.125 10 0.125C3.75 0.125 0 7 0 7C0 7 3.75 13.875 10 13.875C16.25 13.875 20 7 20 7ZM1.46625 7C2.07065 7.91859 2.76581 8.77414 3.54125 9.55375C5.15 11.165 7.35 12.625 10 12.625C12.65 12.625 14.8488 11.165 16.46 9.55375C17.2354 8.77414 17.9306 7.91859 18.535 7C17.9306 6.0814 17.2354 5.22586 16.46 4.44625C14.8488 2.835 12.6488 1.375 10 1.375C7.35 1.375 5.15125 2.835 3.54 4.44625C2.76455 5.22586 2.06939 6.0814 1.465 7H1.46625Z"
    fill="#2D368B"
  />
  <path
    fill-rule="evenodd"
    clip-rule="evenodd"
    d="M10 3.875C9.1712 3.875 8.37634 4.20424 7.79029 4.79029C7.20424 5.37634 6.875 6.1712 6.875 7C6.875 7.8288 7.20424 8.62366 7.79029 9.20971C8.37634 9.79576 9.1712 10.125 10 10.125C10.8288 10.125 11.6237 9.79576 12.2097 9.20971C12.7958 8.62366 13.125 7.8288 13.125 7C13.125 6.1712 12.7958 5.37634 12.2097 4.79029C11.6237 4.20424 10.8288 3.875 10 3.875ZM5.625 7C5.625 5.83968 6.08594 4.72688 6.90641 3.90641C7.72688 3.08594 8.83968 2.625 10 2.625C11.1603 2.625 12.2731 3.08594 13.0936 3.90641C13.9141 4.72688 14.375 5.83968 14.375 7C14.375 8.16032 13.9141 9.27312 13.0936 10.0936C12.2731 10.9141 11.1603 11.375 10 11.375C8.83968 11.375 7.72688 10.9141 6.90641 10.0936C6.08594 9.27312 5.625 8.16032 5.625 7Z"
    fill="#2D368B"
  />
</svg>