<svg
  class="btn-icons"
  width="20"
  height="20"
  viewBox="0 0 20 20"
  fill="none"
  xmlns="http://www.w3.org/2000/svg"
>
  <path
    fill-rule="evenodd"
    clip-rule="evenodd"
    d="M1 0.714305C1 0.52486 1.07526 0.343173 1.20922 0.209215C1.34317 0.0752569 1.52486 0 1.7143 0H18.8576C19.0471 0 19.2288 0.0752569 19.3627 0.209215C19.4967 0.343173 19.5719 0.52486 19.5719 0.714305V3.57153C19.5719 3.74768 19.5068 3.91762 19.3891 4.04868L13.1432 10.9889V17.8576C13.1431 18.0075 13.0958 18.1535 13.0081 18.275C12.9205 18.3966 12.7968 18.4874 12.6546 18.5348L8.36877 19.9634C8.26144 19.9991 8.14716 20.0089 8.03533 19.9918C7.9235 19.9748 7.81733 19.9314 7.72554 19.8653C7.63375 19.7992 7.55898 19.7122 7.50738 19.6115C7.45578 19.5108 7.42883 19.3994 7.42874 19.2862V10.9889L1.18286 4.04868C1.06516 3.91762 1.00003 3.74768 1 3.57153V0.714305ZM2.42861 1.42861V3.29723L8.67449 10.2374C8.7922 10.3685 8.85732 10.5384 8.85735 10.7146V18.2948L11.7146 17.3433V10.7146C11.7146 10.5384 11.7797 10.3685 11.8974 10.2374L18.1433 3.29723V1.42861H2.42861Z"
    fill="white"
  />
</svg>