<svg
    class="icon-journal-bookmark"
    width="21"
    height="22"
    viewBox="0 0 21 22"
    fill="none"
    xmlns="http://www.w3.org/2000/svg"
  >
    <path
      d="M4.125 0H17.875C18.6043 0 19.3038 0.289731 19.8195 0.805456C20.3353 1.32118 20.625 2.02065 20.625 2.75V19.25C20.625 19.9793 20.3353 20.6788 19.8195 21.1945C19.3038 21.7103 18.6043 22 17.875 22H4.125C3.39565 22 2.69618 21.7103 2.18046 21.1945C1.66473 20.6788 1.375 19.9793 1.375 19.25V17.875H2.75V19.25C2.75 19.6147 2.89487 19.9644 3.15273 20.2223C3.41059 20.4801 3.76033 20.625 4.125 20.625H17.875C18.2397 20.625 18.5894 20.4801 18.8473 20.2223C19.1051 19.9644 19.25 19.6147 19.25 19.25V2.75C19.25 2.38533 19.1051 2.03559 18.8473 1.77773C18.5894 1.51987 18.2397 1.375 17.875 1.375H4.125C3.76033 1.375 3.41059 1.51987 3.15273 1.77773C2.89487 2.03559 2.75 2.38533 2.75 2.75V4.125H1.375V2.75C1.375 2.02065 1.66473 1.32118 2.18046 0.805456C2.69618 0.289731 3.39565 0 4.125 0V0Z"
      fill="#F8F9FC"
    />
    <path
      d="M1.375 6.875V6.1875C1.375 6.00516 1.44743 5.8303 1.57636 5.70136C1.7053 5.57243 1.88016 5.5 2.0625 5.5C2.24484 5.5 2.4197 5.57243 2.54864 5.70136C2.67757 5.8303 2.75 6.00516 2.75 6.1875V6.875H3.4375C3.61984 6.875 3.7947 6.94743 3.92364 7.07636C4.05257 7.2053 4.125 7.38016 4.125 7.5625C4.125 7.74484 4.05257 7.9197 3.92364 8.04864C3.7947 8.17757 3.61984 8.25 3.4375 8.25H0.6875C0.505164 8.25 0.330295 8.17757 0.201364 8.04864C0.0724328 7.9197 0 7.74484 0 7.5625C0 7.38016 0.0724328 7.2053 0.201364 7.07636C0.330295 6.94743 0.505164 6.875 0.6875 6.875H1.375ZM1.375 11V10.3125C1.375 10.1302 1.44743 9.9553 1.57636 9.82636C1.7053 9.69743 1.88016 9.625 2.0625 9.625C2.24484 9.625 2.4197 9.69743 2.54864 9.82636C2.67757 9.9553 2.75 10.1302 2.75 10.3125V11H3.4375C3.61984 11 3.7947 11.0724 3.92364 11.2014C4.05257 11.3303 4.125 11.5052 4.125 11.6875C4.125 11.8698 4.05257 12.0447 3.92364 12.1736C3.7947 12.3026 3.61984 12.375 3.4375 12.375H0.6875C0.505164 12.375 0.330295 12.3026 0.201364 12.1736C0.0724328 12.0447 0 11.8698 0 11.6875C0 11.5052 0.0724328 11.3303 0.201364 11.2014C0.330295 11.0724 0.505164 11 0.6875 11H1.375ZM1.375 15.125V14.4375C1.375 14.2552 1.44743 14.0803 1.57636 13.9514C1.7053 13.8224 1.88016 13.75 2.0625 13.75C2.24484 13.75 2.4197 13.8224 2.54864 13.9514C2.67757 14.0803 2.75 14.2552 2.75 14.4375V15.125H3.4375C3.61984 15.125 3.7947 15.1974 3.92364 15.3264C4.05257 15.4553 4.125 15.6302 4.125 15.8125C4.125 15.9948 4.05257 16.1697 3.92364 16.2986C3.7947 16.4276 3.61984 16.5 3.4375 16.5H0.6875C0.505164 16.5 0.330295 16.4276 0.201364 16.2986C0.0724328 16.1697 0 15.9948 0 15.8125C0 15.6302 0.0724328 15.4553 0.201364 15.3264C0.330295 15.1974 0.505164 15.125 0.6875 15.125H1.375Z"
      fill="#F8F9FC"
    />
    <path
      fill-rule="evenodd"
      clip-rule="evenodd"
      d="M8.25 11V1.375H9.625V9.78588L12.0216 8.34625C12.1284 8.28227 12.2505 8.24848 12.375 8.24848C12.4995 8.24848 12.6216 8.28227 12.7284 8.34625L15.125 9.78588V1.375H16.5V11C16.5 11.1216 16.4678 11.2411 16.4065 11.3462C16.3453 11.4513 16.2573 11.5383 16.1515 11.5983C16.0456 11.6582 15.9258 11.6891 15.8042 11.6876C15.6825 11.6861 15.5635 11.6524 15.4591 11.5899L12.375 9.73913L9.29088 11.5913C9.18643 11.6538 9.06725 11.6876 8.9455 11.689C8.82375 11.6904 8.70381 11.6594 8.59794 11.5993C8.49207 11.5392 8.40407 11.452 8.34293 11.3467C8.2818 11.2414 8.24973 11.1218 8.25 11Z"
      fill="#F8F9FC"
    />
  </svg>