<svg width="63" height="48" viewBox="0 0 63 48" fill="none" xmlns="http://www.w3.org/2000/svg">
<g clip-path="url(#clip0_25_45446)">
<path d="M22.8636 39.4C17.9592 39.643 13.9024 37.8512 10.6631 34.2372C7.99894 31.261 6.72741 27.7381 7.03016 23.7293C7.18153 21.8464 8.6347 20.7834 10.7539 20.8746C12.4493 20.9353 13.8722 22.3627 13.9024 24.0937C13.963 27.3433 15.3253 29.7729 18.1408 31.4128C20.2903 32.658 22.7123 32.658 25.0131 32.2632C29.4332 31.4736 31.4313 29.1351 31.8854 24.61C32.0973 22.393 33.1872 21.0568 34.9431 20.9049C37.2742 20.662 38.9999 22.1197 38.9999 24.4885C39.0302 31.5343 33.7321 37.9727 27.0415 39.0356C25.6792 39.1874 24.2563 39.2482 22.8636 39.4Z" fill="#F8F9FC"/>
<path d="M15.9311 17.1087C13.6908 17.1087 11.9047 15.3776 11.8744 13.1606C11.8441 10.9437 13.7211 9 15.9311 9C18.1715 9 19.9879 10.8829 19.9879 13.1606C19.9274 15.408 18.2017 17.1087 15.9311 17.1087Z" fill="#F8F9FC"/>
<path d="M28.4042 14.6791C27.163 14.6791 25.8914 14.6791 24.6502 14.6791C23.4998 14.6791 22.864 13.9502 22.8035 12.8873C22.7429 11.7636 23.3484 10.8829 24.5291 10.8525C27.1932 10.7614 29.8574 10.7614 32.5215 10.8525C33.6114 10.8829 34.1866 11.6725 34.1866 12.7962C34.1866 13.9198 33.6114 14.6183 32.4912 14.6791C31.1289 14.7398 29.7666 14.6791 28.4042 14.6791Z" fill="#F8F9FC"/>
</g>
<defs>
<clipPath id="clip0_25_45446">
<rect width="32" height="30.4" fill="white" transform="translate(7 9)"/>
</clipPath>
</defs>
</svg>