<svg
    class="icon-arrow-left-circle"
    width="24"
    height="24"
    viewBox="0 0 24 24"
    fill="none"
    xmlns="http://www.w3.org/2000/svg"
  >
    <path
      fill-rule="evenodd"
      clip-rule="evenodd"
      d="M12 22.5C14.7848 22.5 17.4555 21.3938 19.4246 19.4246C21.3938 17.4555 22.5 14.7848 22.5 12C22.5 9.21523 21.3938 6.54451 19.4246 4.57538C17.4555 2.60625 14.7848 1.5 12 1.5C9.21523 1.5 6.54451 2.60625 4.57538 4.57538C2.60625 6.54451 1.5 9.21523 1.5 12C1.5 14.7848 2.60625 17.4555 4.57538 19.4246C6.54451 21.3938 9.21523 22.5 12 22.5ZM12 24C15.1826 24 18.2348 22.7357 20.4853 20.4853C22.7357 18.2348 24 15.1826 24 12C24 8.8174 22.7357 5.76516 20.4853 3.51472C18.2348 1.26428 15.1826 0 12 0C8.8174 0 5.76516 1.26428 3.51472 3.51472C1.26428 5.76516 0 8.8174 0 12C0 15.1826 1.26428 18.2348 3.51472 20.4853C5.76516 22.7357 8.8174 24 12 24Z"
      fill="#F8F9FC"
    />
    <path
      fill-rule="evenodd"
      clip-rule="evenodd"
      d="M5.99915 12.001C5.99915 11.8021 6.07817 11.6113 6.21882 11.4707C6.35947 11.33 6.55024 11.251 6.74915 11.251L15.4386 11.251L12.2181 8.03201C12.1484 7.96227 12.0931 7.87949 12.0554 7.78838C12.0176 7.69727 11.9982 7.59962 11.9982 7.50101C11.9982 7.40239 12.0176 7.30474 12.0554 7.21363C12.0931 7.12252 12.1484 7.03974 12.2181 6.97001C12.2879 6.90027 12.3707 6.84496 12.4618 6.80722C12.5529 6.76948 12.6505 6.75006 12.7491 6.75006C12.8478 6.75006 12.9454 6.76948 13.0365 6.80722C13.1276 6.84496 13.2104 6.90027 13.2801 6.97001L17.7801 11.47C17.85 11.5397 17.9054 11.6224 17.9432 11.7136C17.981 11.8047 18.0005 11.9024 18.0005 12.001C18.0005 12.0997 17.981 12.1973 17.9432 12.2885C17.9054 12.3796 17.85 12.4623 17.7801 12.532L13.2801 17.032C13.1393 17.1728 12.9483 17.252 12.7491 17.252C12.55 17.252 12.359 17.1728 12.2181 17.032C12.0773 16.8912 11.9982 16.7002 11.9982 16.501C11.9982 16.3018 12.0773 16.1108 12.2181 15.97L15.4386 12.751L6.74915 12.751C6.55024 12.751 6.35947 12.672 6.21882 12.5313C6.07817 12.3907 5.99915 12.1999 5.99915 12.001Z"
      fill="#F8F9FC"
    />
  </svg>