<svg
  class="btn-icons"
  width="19"
  height="18"
  viewBox="0 0 19 18"
  fill="none"
  xmlns="http://www.w3.org/2000/svg"
>
  <path
    fill-rule="evenodd"
    clip-rule="evenodd"
    d="M19 8.99989C19 8.6684 18.8749 8.35049 18.6522 8.1161C18.4296 7.88171 18.1275 7.75003 17.8126 7.75003L4.05579 7.75003L9.15435 2.38562C9.26475 2.26942 9.35232 2.13146 9.41206 1.97963C9.47181 1.8278 9.50256 1.66507 9.50256 1.50072C9.50256 1.33638 9.47181 1.17365 9.41206 1.02182C9.35232 0.869986 9.26475 0.732029 9.15435 0.615822C9.04395 0.499615 8.91289 0.407434 8.76865 0.344543C8.62441 0.281654 8.46982 0.249285 8.31369 0.249285C8.15757 0.249285 8.00297 0.281654 7.85873 0.344543C7.71449 0.407434 7.58343 0.499615 7.47304 0.615822L0.348834 8.11498C0.238258 8.23109 0.150529 8.36901 0.0906699 8.52086C0.0308113 8.6727 0 8.83549 0 8.99989C0 9.16429 0.0308113 9.32707 0.0906699 9.47892C0.150529 9.63076 0.238258 9.76869 0.348834 9.88479L7.47304 17.3839C7.69599 17.6186 7.99839 17.7505 8.31369 17.7505C8.629 17.7505 8.93139 17.6186 9.15435 17.3839C9.37731 17.1493 9.50256 16.831 9.50256 16.499C9.50256 16.1671 9.37731 15.8488 9.15435 15.6141L4.05579 10.2497L17.8126 10.2497C18.1275 10.2497 18.4296 10.1181 18.6522 9.88367C18.8749 9.64928 19 9.33137 19 8.99989Z"
    fill="#6E6F71"
  />
</svg>