<svg
  class="frame-5645"
  width="24"
  height="24"
  viewBox="0 0 24 24"
  fill="none"
  xmlns="http://www.w3.org/2000/svg"
>
  <path
    d="M10.6683 10.4335C11.313 9.81458 11.6752 8.97521 11.6752 8.1C11.6752 7.22479 11.313 6.38542 10.6683 5.76655C10.0237 5.14768 9.1493 4.8 8.2376 4.8C7.3259 4.8 6.45154 5.14768 5.80687 5.76655C5.16221 6.38542 4.80003 7.22479 4.80003 8.1C4.80003 8.97521 5.16221 9.81458 5.80687 10.4335C6.45154 11.0523 7.3259 11.4 8.2376 11.4C9.1493 11.4 10.0237 11.0523 10.6683 10.4335Z"
    fill="#F8F9FC"
  />
  <path
    d="M19.8 8.1C19.8 8.97521 19.4378 9.81458 18.7932 10.4335C18.1485 11.0523 17.2741 11.4 16.3624 11.4C15.4507 11.4 14.5764 11.0523 13.9317 10.4335C13.287 9.81458 12.9249 8.97521 12.9249 8.1C12.9249 7.22479 13.287 6.38542 13.9317 5.76655C14.5764 5.14768 15.4507 4.8 16.3624 4.8C17.2741 4.8 18.1485 5.14768 18.7932 5.76655C19.4378 6.38542 19.8 7.22479 19.8 8.1Z"
    fill="#F8F9FC"
  />
  <path
    d="M18.7931 18.8335C19.4377 18.2146 19.7999 17.3752 19.7999 16.5C19.7999 15.6248 19.4377 14.7854 18.7931 14.1665C18.1484 13.5477 17.274 13.2 16.3623 13.2C15.4506 13.2 14.5763 13.5477 13.9316 14.1665C13.287 14.7854 12.9248 15.6248 12.9248 16.5C12.9248 17.3752 13.287 18.2146 13.9316 18.8335C14.5763 19.4523 15.4506 19.8 16.3623 19.8C17.274 19.8 18.1484 19.4523 18.7931 18.8335Z"
    fill="#F8F9FC"
  />
  <path
    d="M11.6751 16.5C11.6751 17.3752 11.313 18.2146 10.6683 18.8335C10.0236 19.4523 9.14926 19.8 8.23757 19.8C7.32587 19.8 6.45151 19.4523 5.80684 18.8335C5.16217 18.2146 4.8 17.3752 4.8 16.5C4.8 15.6248 5.16217 14.7854 5.80684 14.1665C6.45151 13.5477 7.32587 13.2 8.23757 13.2C9.14926 13.2 10.0236 13.5477 10.6683 14.1665C11.313 14.7854 11.6751 15.6248 11.6751 16.5Z"
    fill="#F8F9FC"
  />
  <path
    fill-rule="evenodd"
    clip-rule="evenodd"
    d="M24 12C24 18.6274 18.6274 24 12 24C5.37258 24 0 18.6274 0 12C0 5.37258 5.37258 0 12 0C18.6274 0 24 5.37258 24 12ZM22.8 12C22.8 17.9647 17.9647 22.8 12 22.8C6.03532 22.8 1.2 17.9647 1.2 12C1.2 6.03532 6.03532 1.2 12 1.2C17.9647 1.2 22.8 6.03532 22.8 12Z"
    fill="#F8F9FC"
  />
</svg>