<svg
    class="icon-gear2"
    width="22"
    height="22"
    viewBox="0 0 22 22"
    fill="none"
    xmlns="http://www.w3.org/2000/svg"
  >
    <path
      fill-rule="evenodd"
      clip-rule="evenodd"
      d="M12.1509 2.2352C11.8127 1.08701 10.1873 1.08701 9.84905 2.2352L9.71979 2.67385C9.61109 3.0423 9.42134 3.38177 9.16444 3.66738C8.90755 3.953 8.59001 4.17753 8.2351 4.32453C7.88019 4.47153 7.49689 4.53728 7.11328 4.51696C6.72966 4.49663 6.35546 4.39075 6.01806 4.20708L5.61654 3.98706C4.56597 3.4164 3.4164 4.5646 3.98844 5.61654L4.20708 6.01806C4.39075 6.35546 4.49663 6.72966 4.51696 7.11328C4.53728 7.49689 4.47153 7.88019 4.32453 8.2351C4.17753 8.59001 3.953 8.90755 3.66738 9.16444C3.38177 9.42134 3.0423 9.61109 2.67385 9.71979L2.2352 9.84905C1.08701 10.1873 1.08701 11.8127 2.2352 12.1509L2.67385 12.2802C3.0425 12.3889 3.38214 12.5786 3.6679 12.8356C3.95366 13.0926 4.17829 13.4103 4.3253 13.7654C4.47232 14.1205 4.53801 14.504 4.51756 14.8878C4.4971 15.2715 4.39101 15.6459 4.20708 15.9833L3.98706 16.3835C3.4164 17.434 4.5646 18.5836 5.61654 18.0116L6.01806 17.7929C6.35555 17.6093 6.72985 17.5034 7.11353 17.4832C7.49722 17.463 7.88058 17.5288 8.23551 17.676C8.59044 17.8231 8.90795 18.0478 9.16478 18.3336C9.42161 18.6193 9.61124 18.959 9.71979 19.3275L9.84905 19.7648C10.1873 20.913 11.8127 20.913 12.1509 19.7648L12.2802 19.3261C12.3889 18.9575 12.5786 18.6179 12.8356 18.3321C13.0926 18.0463 13.4103 17.8217 13.7654 17.6747C14.1205 17.5277 14.504 17.462 14.8878 17.4824C15.2715 17.5029 15.6459 17.609 15.9833 17.7929L16.3835 18.0129C17.434 18.5836 18.5836 17.4354 18.0116 16.3835L17.7929 15.9833C17.609 15.6458 17.503 15.2714 17.4826 14.8875C17.4622 14.5036 17.528 14.1201 17.6752 13.765C17.8224 13.4099 18.0471 13.0922 18.333 12.8353C18.619 12.5784 18.9588 12.3887 19.3275 12.2802L19.7648 12.1509C20.913 11.8127 20.913 10.1873 19.7648 9.84905L19.3261 9.71979C18.9577 9.61109 18.6182 9.42134 18.3326 9.16444C18.047 8.90755 17.8225 8.59001 17.6755 8.2351C17.5285 7.88019 17.4627 7.49689 17.483 7.11328C17.5034 6.72966 17.6092 6.35546 17.7929 6.01806L18.0129 5.61654C18.5836 4.56597 17.4354 3.4164 16.3835 3.98844L15.9833 4.20708C15.6458 4.39127 15.2714 4.49756 14.8874 4.51816C14.5035 4.53875 14.1198 4.47312 13.7645 4.32608C13.4093 4.17904 13.0914 3.95433 12.8343 3.66842C12.5773 3.38252 12.3874 3.04269 12.2788 2.67385L12.1496 2.2352H12.1509ZM8.53034 1.84605C9.25502 -0.615351 12.745 -0.615351 13.4697 1.84605L13.5989 2.28471C13.6495 2.45653 13.7379 2.61484 13.8577 2.74805C13.9774 2.88126 14.1255 2.98599 14.2909 3.05455C14.4564 3.12311 14.6351 3.15378 14.814 3.1443C14.9929 3.13481 15.1673 3.08543 15.3246 2.99975L15.7262 2.77974C17.9813 1.55316 20.4482 4.01869 19.2189 6.27383L19.0002 6.67535C18.9146 6.83265 18.8652 7.00713 18.8557 7.186C18.8462 7.36487 18.8769 7.54359 18.9454 7.70906C19.014 7.87454 19.1187 8.02258 19.2519 8.14232C19.3852 8.26206 19.5435 8.35048 19.7153 8.40109L20.1539 8.53034C22.6154 9.25502 22.6154 12.745 20.1539 13.4697L19.7153 13.5989C19.5435 13.6495 19.3852 13.7379 19.2519 13.8577C19.1187 13.9774 19.014 14.1255 18.9454 14.2909C18.8769 14.4564 18.8462 14.6351 18.8557 14.814C18.8652 14.9929 18.9146 15.1673 19.0002 15.3246L19.2203 15.7262C20.4482 17.9813 17.9799 20.4482 15.7262 19.2189L15.3246 19.0002C15.1673 18.9146 14.9929 18.8652 14.814 18.8557C14.6351 18.8462 14.4564 18.8769 14.2909 18.9454C14.1255 19.014 13.9774 19.1187 13.8577 19.2519C13.7379 19.3852 13.6495 19.5435 13.5989 19.7153L13.4697 20.1539C12.745 22.6154 9.25502 22.6154 8.53034 20.1539L8.40109 19.7153C8.35048 19.5435 8.26206 19.3852 8.14232 19.2519C8.02258 19.1187 7.87454 19.014 7.70906 18.9454C7.54359 18.8769 7.36487 18.8462 7.186 18.8557C7.00713 18.8652 6.83265 18.9146 6.67535 19.0002L6.27383 19.2203C4.01869 20.4482 1.55316 17.9799 2.78111 15.7262L2.99975 15.3246C3.08543 15.1673 3.13481 14.9929 3.1443 14.814C3.15378 14.6351 3.12311 14.4564 3.05455 14.2909C2.98599 14.1255 2.88126 13.9774 2.74805 13.8577C2.61484 13.7379 2.45653 13.6495 2.28471 13.5989L1.84605 13.4697C-0.615351 12.745 -0.615351 9.25502 1.84605 8.53034L2.28471 8.40109C2.45653 8.35048 2.61484 8.26206 2.74805 8.14232C2.88126 8.02258 2.98599 7.87454 3.05455 7.70906C3.12311 7.54359 3.15378 7.36487 3.1443 7.186C3.13481 7.00713 3.08543 6.83265 2.99975 6.67535L2.77974 6.27383C1.55316 4.01869 4.02006 1.55316 6.27383 2.78111L6.67535 2.99975C6.83265 3.08543 7.00713 3.13481 7.186 3.1443C7.36487 3.15378 7.54359 3.12311 7.70906 3.05455C7.87454 2.98599 8.02258 2.88126 8.14232 2.74805C8.26206 2.61484 8.35048 2.45653 8.40109 2.28471L8.53034 1.84605Z"
      fill="white"
    />
    <path
      fill-rule="evenodd"
      clip-rule="evenodd"
      d="M10.9997 7.91122C10.1806 7.91122 9.395 8.23661 8.8158 8.8158C8.23661 9.395 7.91122 10.1806 7.91122 10.9997C7.91122 11.8188 8.23661 12.6043 8.8158 13.1835C9.395 13.7627 10.1806 14.0881 10.9997 14.0881C11.8188 14.0881 12.6043 13.7627 13.1835 13.1835C13.7627 12.6043 14.0881 11.8188 14.0881 10.9997C14.0881 10.1806 13.7627 9.395 13.1835 8.8158C12.6043 8.23661 11.8188 7.91122 10.9997 7.91122ZM6.53613 10.9997C6.53613 10.4135 6.65159 9.83308 6.8759 9.29154C7.10021 8.75 7.42899 8.25795 7.84347 7.84347C8.25795 7.42899 8.75 7.10021 9.29154 6.8759C9.83308 6.65159 10.4135 6.53613 10.9997 6.53613C11.5858 6.53613 12.1662 6.65159 12.7078 6.8759C13.2493 7.10021 13.7414 7.42899 14.1559 7.84347C14.5703 8.25795 14.8991 8.75 15.1234 9.29154C15.3477 9.83308 15.4632 10.4135 15.4632 10.9997C15.4632 12.1835 14.9929 13.3188 14.1559 14.1559C13.3188 14.9929 12.1835 15.4632 10.9997 15.4632C9.81586 15.4632 8.68054 14.9929 7.84347 14.1559C7.0064 13.3188 6.53613 12.1835 6.53613 10.9997Z"
      fill="white"
    />
  </svg>