<svg
  class="btn-icons"
  width="18"
  height="20"
  viewBox="0 0 18 20"
  fill="none"
  xmlns="http://www.w3.org/2000/svg"
>
  <path
    d="M5.27457 7.33203C5.44944 7.33203 5.61715 7.40227 5.7408 7.52729C5.86445 7.65232 5.93392 7.82189 5.93392 7.9987V15.9987C5.93392 16.1755 5.86445 16.3451 5.7408 16.4701C5.61715 16.5951 5.44944 16.6654 5.27457 16.6654C5.09971 16.6654 4.932 16.5951 4.80835 16.4701C4.6847 16.3451 4.61523 16.1755 4.61523 15.9987V7.9987C4.61523 7.82189 4.6847 7.65232 4.80835 7.52729C4.932 7.40227 5.09971 7.33203 5.27457 7.33203ZM8.57128 7.33203C8.74615 7.33203 8.91385 7.40227 9.0375 7.52729C9.16115 7.65232 9.23062 7.82189 9.23062 7.9987V15.9987C9.23062 16.1755 9.16115 16.3451 9.0375 16.4701C8.91385 16.5951 8.74615 16.6654 8.57128 16.6654C8.39641 16.6654 8.2287 16.5951 8.10505 16.4701C7.9814 16.3451 7.91194 16.1755 7.91194 15.9987V7.9987C7.91194 7.82189 7.9814 7.65232 8.10505 7.52729C8.2287 7.40227 8.39641 7.33203 8.57128 7.33203ZM12.5273 7.9987C12.5273 7.82189 12.4579 7.65232 12.3342 7.52729C12.2106 7.40227 12.0428 7.33203 11.868 7.33203C11.6931 7.33203 11.5254 7.40227 11.4018 7.52729C11.2781 7.65232 11.2086 7.82189 11.2086 7.9987V15.9987C11.2086 16.1755 11.2781 16.3451 11.4018 16.4701C11.5254 16.5951 11.6931 16.6654 11.868 16.6654C12.0428 16.6654 12.2106 16.5951 12.3342 16.4701C12.4579 16.3451 12.5273 16.1755 12.5273 15.9987V7.9987Z"
    fill="#2D368B"
  />
  <path
    fill-rule="evenodd"
    clip-rule="evenodd"
    d="M17.1429 4C17.1429 4.35362 17.0039 4.69276 16.7566 4.94281C16.5093 5.19286 16.1739 5.33333 15.8242 5.33333H15.1648V17.3333C15.1648 18.0406 14.887 18.7189 14.3924 19.219C13.8978 19.719 13.2269 20 12.5275 20H4.61538C3.91591 20 3.24509 19.719 2.75049 19.219C2.25589 18.7189 1.97802 18.0406 1.97802 17.3333V5.33333H1.31868C0.968945 5.33333 0.633533 5.19286 0.386233 4.94281C0.138932 4.69276 0 4.35362 0 4V2.66667C0 2.31304 0.138932 1.97391 0.386233 1.72386C0.633533 1.47381 0.968945 1.33333 1.31868 1.33333H5.93407C5.93407 0.979711 6.073 0.640573 6.3203 0.390524C6.5676 0.140476 6.90301 0 7.25275 0L9.89011 0C10.2398 0 10.5753 0.140476 10.8226 0.390524C11.0699 0.640573 11.2088 0.979711 11.2088 1.33333H15.8242C16.1739 1.33333 16.5093 1.47381 16.7566 1.72386C17.0039 1.97391 17.1429 2.31304 17.1429 2.66667V4ZM3.45231 5.33333L3.2967 5.412V17.3333C3.2967 17.687 3.43564 18.0261 3.68294 18.2761C3.93024 18.5262 4.26565 18.6667 4.61538 18.6667H12.5275C12.8772 18.6667 13.2126 18.5262 13.4599 18.2761C13.7072 18.0261 13.8462 17.687 13.8462 17.3333V5.412L13.6905 5.33333H3.45231ZM1.31868 4V2.66667H15.8242V4H1.31868Z"
    fill="#2D368B"
  />
</svg>