<svg
  class="btn-icons"
  width="21"
  height="14"
  viewBox="0 0 21 14"
  fill="none"
  xmlns="http://www.w3.org/2000/svg"
>
  <path
    fill-rule="evenodd"
    clip-rule="evenodd"
    d="M6.0075 1.8025C7.25685 0.725169 8.8503 0.130173 10.5 0.125C13.8625 0.125 16.6538 2.625 16.9575 5.84875C18.9475 6.13 20.5 7.79625 20.5 9.84125C20.5 12.0863 18.6275 13.875 16.3588 13.875H5.22625C2.635 13.875 0.5 11.8325 0.5 9.2725C0.5 7.06875 2.0825 5.24375 4.1775 4.78125C4.35625 3.7025 5.05 2.6275 6.0075 1.8025ZM6.82375 2.74875C5.8775 3.565 5.3825 4.54875 5.3825 5.31875V5.87875L4.82625 5.94C3.08 6.13125 1.75 7.565 1.75 9.2725C1.75 11.1063 3.2875 12.625 5.22625 12.625H16.3588C17.975 12.625 19.25 11.36 19.25 9.84125C19.25 8.32125 17.975 7.05625 16.3588 7.05625H15.7338V6.43125C15.735 3.65625 13.41 1.375 10.5 1.375C9.14985 1.38039 7.84605 1.86804 6.82375 2.75V2.74875Z"
    fill="white"
  />
  <path
    fill-rule="evenodd"
    clip-rule="evenodd"
    d="M10.0583 4.05862C10.1163 4.00041 10.1853 3.95423 10.2612 3.92273C10.3372 3.89122 10.4186 3.875 10.5008 3.875C10.583 3.875 10.6644 3.89122 10.7403 3.92273C10.8163 3.95423 10.8852 4.00041 10.9433 4.05862L13.4433 6.55862C13.5014 6.61673 13.5475 6.68571 13.5789 6.76164C13.6104 6.83756 13.6266 6.91894 13.6266 7.00112C13.6266 7.0833 13.6104 7.16467 13.5789 7.2406C13.5475 7.31652 13.5014 7.38551 13.4433 7.44362C13.3852 7.50173 13.3162 7.54782 13.2403 7.57927C13.1643 7.61072 13.083 7.62691 13.0008 7.62691C12.9186 7.62691 12.8372 7.61072 12.7613 7.57927C12.6854 7.54782 12.6164 7.50173 12.5583 7.44362L11.1258 6.00987V10.7511C11.1258 10.9169 11.0599 11.0758 10.9427 11.1931C10.8255 11.3103 10.6666 11.3761 10.5008 11.3761C10.335 11.3761 10.1761 11.3103 10.0588 11.1931C9.94164 11.0758 9.87579 10.9169 9.87579 10.7511V6.00987L8.44329 7.44362C8.32593 7.56098 8.16676 7.62691 8.00079 7.62691C7.83482 7.62691 7.67565 7.56098 7.55829 7.44362C7.44093 7.32626 7.375 7.16709 7.375 7.00112C7.375 6.83515 7.44093 6.67598 7.55829 6.55862L10.0583 4.05862Z"
    fill="white"
  />
</svg>