<svg
  class="layout-split"
  width="20"
  height="20"
  viewBox="0 0 20 20"
  fill="none"
  xmlns="http://www.w3.org/2000/svg"
>
  <path
    d="M0 3.5C0 2.11929 1.11929 1 2.5 1H17.5C18.8807 1 20 2.11929 20 3.5V16C20 17.3807 18.8807 18.5 17.5 18.5H2.5C1.11929 18.5 0 17.3807 0 16V3.5ZM10.625 2.25V17.25H17.5C18.1904 17.25 18.75 16.6904 18.75 16V3.5C18.75 2.80964 18.1904 2.25 17.5 2.25H10.625ZM9.375 2.25H2.5C1.80964 2.25 1.25 2.80964 1.25 3.5V16C1.25 16.6904 1.80964 17.25 2.5 17.25H9.375V2.25Z"
    fill="#3D4AA3"
  />
</svg>
